<svg width="16" height="16" viewBox="0 0 16 16" fill="none" xmlns="http://www.w3.org/2000/svg">
<path d="M15 10.0309C15.7188 10.3435 16.125 11.1247 15.9062 11.9059L15.25 14.7497C15.125 15.4997 14.4688 15.9997 13.6875 15.9997C6.125 15.9997 0 9.87468 0 2.31218C0 1.53093 0.5 0.874684 1.25 0.718434L4.09375 0.0621838C4.875 -0.125316 5.65625 0.280934 5.96875 0.999684L7.3125 4.12468C7.59375 4.78093 7.375 5.56218 6.84375 6.03093L5.78125 6.87468C6.59375 8.24968 7.75 9.40588 9.1562 10.2185L10 9.18718C10.4688 8.62468 11.25 8.40588 11.9375 8.71848L15 10.0309ZM14.4688 11.5622C14.5 11.4997 14.4688 11.4372 14.4062 11.3747L11.3438 10.0622C11.2812 10.0309 11.2188 10.0622 11.1875 10.0935L9.9375 11.6247C9.7188 11.9059 9.3125 11.9685 9 11.8122C6.90625 10.7809 5.1875 9.06218 4.15625 6.96843C4 6.65593 4.09375 6.28093 4.34375 6.06218L5.875 4.81218C5.9375 4.78093 5.9375 4.71843 5.90625 4.65593L4.59375 1.59343C4.5625 1.56218 4.53125 1.49968 4.46875 1.49968L4.4375 1.53093L1.59375 2.18718C1.53125 2.18718 1.46875 2.24968 1.46875 2.31218C1.46875 9.03088 6.96875 14.4997 13.6875 14.4997C13.75 14.4997 13.8125 14.4372 13.8125 14.4059L14.4688 11.5622Z" fill="#3D3935"/>
</svg>
