<svg width="28" height="28" viewBox="0 0 28 28" fill="none" xmlns="http://www.w3.org/2000/svg">
<path d="M3.47334 12.2675V17.5105C3.47334 20.8064 3.47334 22.4537 4.50001 23.478C5.52551 24.5024 7.17751 24.5024 10.4803 24.5024H15.1528M8.14468 19.8415H12.8172M21.5765 19.8415H21.5882M21.5765 15.7617C23.834 15.7617 25.6645 17.5537 25.6645 19.7634C25.6645 22.2647 23.1935 23.4932 22.014 25.3669C21.7632 25.767 21.4073 25.767 21.139 25.3669C19.9233 23.5644 17.4885 22.2122 17.4885 19.7645C17.4885 17.5537 19.319 15.7617 21.5765 15.7617ZM20.7622 2.33685L7.17518 2.36835C5.14751 2.26919 4.62718 3.74735 4.62718 4.46835C4.62718 5.11469 4.53968 6.05619 3.29718 7.82602C2.05351 9.59585 2.14684 10.1209 2.84684 11.3459C3.42784 12.3632 4.90718 12.7599 5.67951 12.8275C6.14002 12.8504 6.60047 12.7813 7.03399 12.6243C7.46751 12.4672 7.86541 12.2255 8.20447 11.913C8.54354 11.6005 8.81697 11.2237 9.00881 10.8044C9.20066 10.3851 9.30707 9.93186 9.32184 9.47102C10.5375 13.006 13.9943 13.006 15.5343 12.6024C17.0767 12.1964 18.3997 10.7474 18.7112 9.47102C18.8932 11.0577 19.4462 11.9829 21.076 12.6187C22.7665 13.2767 24.219 12.2699 24.9482 11.6247C25.6773 10.9795 26.1452 9.54685 24.8455 7.97185C23.9495 6.88569 23.575 5.86252 23.4525 4.80202C23.3825 4.18719 23.3195 3.52685 22.8622 3.10685C22.1948 2.49319 21.237 2.30652 20.7622 2.33685Z" stroke="#3D3935" stroke-width="1.75" stroke-linecap="round" stroke-linejoin="round"/>
</svg>
